<!DOCTYPE svg PUBLIC "-//W3C//DTD SVG 1.1//EN" "http://www.w3.org/Graphics/SVG/1.1/DTD/svg11.dtd">
<!-- Uploaded to: SVG Repo, www.svgrepo.com, Transformed by: SVG Repo Mixer Tools -->
<svg fill="#ffffff" height="800px" width="800px" version="1.1" id="Layer_1" xmlns="http://www.w3.org/2000/svg" xmlns:xlink="http://www.w3.org/1999/xlink" viewBox="0 0 511.998 511.998" xml:space="preserve" stroke="#ffffff">
<g id="SVGRepo_bgCarrier" stroke-width="0"/>
<g id="SVGRepo_tracerCarrier" stroke-linecap="round" stroke-linejoin="round"/>
<g id="SVGRepo_iconCarrier"> <g> <g> <path d="M464.065,226.231c-3.775-11.725-8.555-23.164-14.203-33.985c-9.659-18.571-21.949-35.627-36.52-50.688 c-5.448-5.643-11.273-11.057-17.31-16.096c-5.22-4.355-10.699-8.487-16.303-12.343l6.645-12.784l4.052,2.105 c1.309,0.68,2.751,1.025,4.2,1.025c0.924,0,1.85-0.141,2.747-0.424c2.304-0.729,4.224-2.343,5.338-4.488l20.149-38.804 c2.317-4.463,0.579-9.962-3.884-12.28L363.4,18.587c-2.145-1.115-4.643-1.331-6.946-0.602s-4.224,2.342-5.338,4.485 l-20.161,38.804c-1.114,2.144-1.331,4.642-0.602,6.946c0.729,2.304,2.342,4.223,4.485,5.338l4.047,2.102l-6.622,12.736 c-14.416-5.371-29.358-9.187-44.577-11.409V61.941h12.898c5.031,0,9.109-4.078,9.109-9.109V9.109c0-5.031-4.078-9.109-9.109-9.109 h-89.257c-5.031,0-9.109,4.078-9.109,9.109v43.723c0,5.031,4.078,9.109,9.109,9.109h12.898v15.072 c-53.274,7.795-101.584,34.828-136.13,76.223C50.677,198.073,32.959,254.797,38.206,312.96 c5.247,58.16,32.829,110.797,77.663,148.212c11.385,9.501,23.721,17.85,36.668,24.816c4.428,2.383,9.954,0.725,12.337-3.706 c2.384-4.429,0.725-9.954-3.706-12.337c-11.868-6.386-23.183-14.044-33.628-22.761c-41.098-34.298-66.382-82.548-71.192-135.862 c-4.81-53.315,11.431-105.313,45.732-146.414c31.881-38.203,76.548-63.07,125.773-70.022c48.873-6.902,98.286,4.316,139.145,31.59 c5.984,3.99,11.825,8.355,17.358,12.971c5.538,4.622,10.88,9.59,15.884,14.77c13.354,13.802,24.61,29.424,33.461,46.444 c5.177,9.923,9.557,20.404,13.017,31.148c21.177,65.865,7.384,136.864-36.894,189.922 c-26.371,31.601-61.212,54.027-100.755,64.855c-38.657,10.585-79.092,9.467-116.935-3.229c-4.772-1.601-9.932,0.968-11.533,5.739 c-1.601,4.769,0.968,9.932,5.739,11.533c22.571,7.574,45.983,11.37,69.461,11.37c19.463,0,38.972-2.61,58.08-7.842 c43.15-11.815,81.163-36.282,109.931-70.752C472.118,375.526,487.164,298.079,464.065,226.231z M220.436,43.723V18.218h71.038 v25.505H220.436z M269.468,75.098c-8.963-0.548-17.987-0.539-27.023,0.023v-13.18h27.023V75.098z M363.08,38.955l39.414,20.482 L390.74,82.074l-4.048-2.104l-35.373-18.378L363.08,38.955z M364.264,103.376c-4.959-2.835-10.019-5.453-15.159-7.876 l5.945-11.438l15.157,7.875L364.264,103.376z"/> </g> </g> <g> <g> <path d="M285.941,284.212h-59.973c-3.34,0-6.056-2.717-6.056-6.056v-24.429c0-3.34,2.717-6.056,6.056-6.056h75.138 c5.031,0,9.109-4.078,9.109-9.109s-4.078-9.109-9.109-9.109h-36.042v-22.182c0-5.031-4.078-9.109-9.109-9.109 c-5.031,0-9.109,4.078-9.109,9.109v22.182h-20.878c-13.385,0-24.274,10.889-24.274,24.273v24.429 c0,13.385,10.889,24.274,24.274,24.274h59.973c3.339,0,6.056,2.717,6.056,6.056v24.429c0,3.339-2.717,6.056-6.056,6.056h-75.138 c-5.031,0-9.109,4.078-9.109,9.109c0,5.031,4.078,9.109,9.109,9.109h36.042v22.182c0,5.031,4.078,9.109,9.109,9.109 c5.031,0,9.109-4.078,9.109-9.109v-22.182h20.878c13.384,0,24.274-10.889,24.274-24.274v-24.429 C310.214,295.101,299.325,284.212,285.941,284.212z"/> </g> </g> <g> <g> <path d="M255.954,119.973c-31.481,0-62.313,8.527-89.159,24.657c-4.312,2.591-5.707,8.187-3.116,12.5 c2.591,4.312,8.186,5.707,12.5,3.116c24.014-14.429,51.599-22.056,79.776-22.056c85.537,0,155.127,69.59,155.127,155.128 c0,85.537-69.59,155.127-155.127,155.127c-85.538,0-155.128-69.59-155.128-155.127c0-44.948,19.479-87.65,53.442-117.155 c3.798-3.3,4.202-9.053,0.904-12.851c-3.3-3.798-9.053-4.201-12.851-0.904c-37.949,32.967-59.713,80.682-59.713,130.909 c0,95.582,77.763,173.345,173.346,173.345c95.582,0,173.345-77.763,173.345-173.345 C429.299,197.736,351.536,119.973,255.954,119.973z"/> </g> </g> </g>
</svg>